<?xml version="1.0" standalone="no"?>
 <!DOCTYPE svg PUBLIC "-//W3C//DTD SVG 1.1//EN" 
 "http://www.w3.org/Graphics/SVG/1.1/DTD/svg11.dtd"> 
<svg
  xmlns:svg="http://www.w3.org/2000/svg"
  xmlns="http://www.w3.org/2000/svg"
  xmlns:xlink="http://www.w3.org/1999/xlink"
  version="1.1"
  width="297.0022mm" height="210.0072mm" viewBox="0.0000 0.0000 297.0022 210.0072">
<title>SVG Image created as r2r_basys_DACs-F_Mask.svg date 2025/08/21 13:03:50 </title>
  <desc>Image generated by PCBNEW </desc>
<g style="fill:#000000; fill-opacity:1.0000;stroke:#000000; stroke-opacity:1.0000;
stroke-linecap:round; stroke-linejoin:round;"
 transform="translate(0 0) scale(1 1)">
<path style="fill:#000000; fill-opacity:1.0000; stroke:none;fill-rule:evenodd;"
d="M 149.9520,101.1610
149.9330,101.2567
149.8788,101.3378
149.7977,101.3920
149.7020,101.4110
149.0020,101.4110
148.9063,101.3920
148.8252,101.3378
148.7710,101.2567
148.7520,101.1610
148.7520,100.2610
148.7710,100.1653
148.8252,100.0842
148.9063,100.0300
149.0020,100.0110
149.7020,100.0110
149.7977,100.0300
149.8788,100.0842
149.9330,100.1653
149.9520,100.2610
Z" /> 
<path style="fill:#000000; fill-opacity:1.0000; stroke:none;fill-rule:evenodd;"
d="M 147.9520,101.1610
147.9330,101.2567
147.8788,101.3378
147.7977,101.3920
147.7020,101.4110
147.0020,101.4110
146.9063,101.3920
146.8252,101.3378
146.7710,101.2567
146.7520,101.1610
146.7520,100.2610
146.7710,100.1653
146.8252,100.0842
146.9063,100.0300
147.0020,100.0110
147.7020,100.0110
147.7977,100.0300
147.8788,100.0842
147.9330,100.1653
147.9520,100.2610
Z" /> 
<path style="fill:#000000; fill-opacity:1.0000; stroke:none;fill-rule:evenodd;"
d="M 141.4180,65.2090
141.4370,65.1133
141.4912,65.0322
141.5723,64.9780
141.6680,64.9590
142.3680,64.9590
142.4637,64.9780
142.5448,65.0322
142.5990,65.1133
142.6180,65.2090
142.6180,66.1090
142.5990,66.2047
142.5448,66.2858
142.4637,66.3400
142.3680,66.3590
141.6680,66.3590
141.5723,66.3400
141.4912,66.2858
141.4370,66.2047
141.4180,66.1090
Z" /> 
<path style="fill:#000000; fill-opacity:1.0000; stroke:none;fill-rule:evenodd;"
d="M 143.4180,65.2090
143.4370,65.1133
143.4912,65.0322
143.5723,64.9780
143.6680,64.9590
144.3680,64.9590
144.4637,64.9780
144.5448,65.0322
144.5990,65.1133
144.6180,65.2090
144.6180,66.1090
144.5990,66.2047
144.5448,66.2858
144.4637,66.3400
144.3680,66.3590
143.6680,66.3590
143.5723,66.3400
143.4912,66.2858
143.4370,66.2047
143.4180,66.1090
Z" /> 
<path style="fill:#000000; fill-opacity:1.0000; stroke:none;fill-rule:evenodd;"
d="M 150.4280,72.9090
150.4090,73.0047
150.3548,73.0858
150.2737,73.1400
150.1780,73.1590
149.4780,73.1590
149.3823,73.1400
149.3012,73.0858
149.2470,73.0047
149.2280,72.9090
149.2280,72.0090
149.2470,71.9133
149.3012,71.8322
149.3823,71.7780
149.4780,71.7590
150.1780,71.7590
150.2737,71.7780
150.3548,71.8322
150.4090,71.9133
150.4280,72.0090
Z" /> 
<path style="fill:#000000; fill-opacity:1.0000; stroke:none;fill-rule:evenodd;"
d="M 148.4280,72.9090
148.4090,73.0047
148.3548,73.0858
148.2737,73.1400
148.1780,73.1590
147.4780,73.1590
147.3823,73.1400
147.3012,73.0858
147.2470,73.0047
147.2280,72.9090
147.2280,72.0090
147.2470,71.9133
147.3012,71.8322
147.3823,71.7780
147.4780,71.7590
148.1780,71.7590
148.2737,71.7780
148.3548,71.8322
148.4090,71.9133
148.4280,72.0090
Z" /> 
<path style="fill:#000000; fill-opacity:1.0000; stroke:none;fill-rule:evenodd;"
d="M 141.3540,94.5460
141.3730,94.4503
141.4272,94.3692
141.5083,94.3150
141.6040,94.2960
142.3040,94.2960
142.3997,94.3150
142.4808,94.3692
142.5350,94.4503
142.5540,94.5460
142.5540,95.4460
142.5350,95.5417
142.4808,95.6228
142.3997,95.6770
142.3040,95.6960
141.6040,95.6960
141.5083,95.6770
141.4272,95.6228
141.3730,95.5417
141.3540,95.4460
Z" /> 
<path style="fill:#000000; fill-opacity:1.0000; stroke:none;fill-rule:evenodd;"
d="M 143.3540,94.5460
143.3730,94.4503
143.4272,94.3692
143.5083,94.3150
143.6040,94.2960
144.3040,94.2960
144.3997,94.3150
144.4808,94.3692
144.5350,94.4503
144.5540,94.5460
144.5540,95.4460
144.5350,95.5417
144.4808,95.6228
144.3997,95.6770
144.3040,95.6960
143.6040,95.6960
143.5083,95.6770
143.4272,95.6228
143.3730,95.5417
143.3540,95.4460
Z" /> 
<path style="fill:#000000; fill-opacity:1.0000; stroke:none;fill-rule:evenodd;"
d="M 141.4180,69.7810
141.4370,69.6853
141.4912,69.6042
141.5723,69.5500
141.6680,69.5310
142.3680,69.5310
142.4637,69.5500
142.5448,69.6042
142.5990,69.6853
142.6180,69.7810
142.6180,70.6810
142.5990,70.7767
142.5448,70.8578
142.4637,70.9120
142.3680,70.9310
141.6680,70.9310
141.5723,70.9120
141.4912,70.8578
141.4370,70.7767
141.4180,70.6810
Z" /> 
<path style="fill:#000000; fill-opacity:1.0000; stroke:none;fill-rule:evenodd;"
d="M 143.4180,69.7810
143.4370,69.6853
143.4912,69.6042
143.5723,69.5500
143.6680,69.5310
144.3680,69.5310
144.4637,69.5500
144.5448,69.6042
144.5990,69.6853
144.6180,69.7810
144.6180,70.6810
144.5990,70.7767
144.5448,70.8578
144.4637,70.9120
144.3680,70.9310
143.6680,70.9310
143.5723,70.9120
143.4912,70.8578
143.4370,70.7767
143.4180,70.6810
Z" /> 
<path style="fill:#000000; fill-opacity:1.0000; stroke:none;fill-rule:evenodd;"
d="M 141.3700,98.6100
141.3890,98.5143
141.4432,98.4332
141.5243,98.3790
141.6200,98.3600
142.3200,98.3600
142.4157,98.3790
142.4968,98.4332
142.5510,98.5143
142.5700,98.6100
142.5700,99.5100
142.5510,99.6057
142.4968,99.6868
142.4157,99.7410
142.3200,99.7600
141.6200,99.7600
141.5243,99.7410
141.4432,99.6868
141.3890,99.6057
141.3700,99.5100
Z" /> 
<path style="fill:#000000; fill-opacity:1.0000; stroke:none;fill-rule:evenodd;"
d="M 143.3700,98.6100
143.3890,98.5143
143.4432,98.4332
143.5243,98.3790
143.6200,98.3600
144.3200,98.3600
144.4157,98.3790
144.4968,98.4332
144.5510,98.5143
144.5700,98.6100
144.5700,99.5100
144.5510,99.6057
144.4968,99.6868
144.4157,99.7410
144.3200,99.7600
143.6200,99.7600
143.5243,99.7410
143.4432,99.6868
143.3890,99.6057
143.3700,99.5100
Z" /> 
<path style="fill:#000000; fill-opacity:1.0000; stroke:none;fill-rule:evenodd;"
d="M 151.0110,84.0660
151.0110,83.0660
152.0110,83.0660
152.0110,84.0660
Z" /> 
<path style="fill:#000000; fill-opacity:1.0000; stroke:none;fill-rule:evenodd;"
d="M 144.5700,91.3820
144.5510,91.4777
144.4968,91.5588
144.4157,91.6130
144.3200,91.6320
143.6200,91.6320
143.5243,91.6130
143.4432,91.5588
143.3890,91.4777
143.3700,91.3820
143.3700,90.4820
143.3890,90.3863
143.4432,90.3052
143.5243,90.2510
143.6200,90.2320
144.3200,90.2320
144.4157,90.2510
144.4968,90.3052
144.5510,90.3863
144.5700,90.4820
Z" /> 
<path style="fill:#000000; fill-opacity:1.0000; stroke:none;fill-rule:evenodd;"
d="M 142.5700,91.3820
142.5510,91.4777
142.4968,91.5588
142.4157,91.6130
142.3200,91.6320
141.6200,91.6320
141.5243,91.6130
141.4432,91.5588
141.3890,91.4777
141.3700,91.3820
141.3700,90.4820
141.3890,90.3863
141.4432,90.3052
141.5243,90.2510
141.6200,90.2320
142.3200,90.2320
142.4157,90.2510
142.4968,90.3052
142.5510,90.3863
142.5700,90.4820
Z" /> 
<path style="fill:#000000; fill-opacity:1.0000; stroke:none;fill-rule:evenodd;"
d="M 144.5860,61.5370
144.5670,61.6327
144.5128,61.7138
144.4317,61.7680
144.3360,61.7870
143.6360,61.7870
143.5403,61.7680
143.4592,61.7138
143.4050,61.6327
143.3860,61.5370
143.3860,60.6370
143.4050,60.5413
143.4592,60.4602
143.5403,60.4060
143.6360,60.3870
144.3360,60.3870
144.4317,60.4060
144.5128,60.4602
144.5670,60.5413
144.5860,60.6370
Z" /> 
<path style="fill:#000000; fill-opacity:1.0000; stroke:none;fill-rule:evenodd;"
d="M 142.5860,61.5370
142.5670,61.6327
142.5128,61.7138
142.4317,61.7680
142.3360,61.7870
141.6360,61.7870
141.5403,61.7680
141.4592,61.7138
141.4050,61.6327
141.3860,61.5370
141.3860,60.6370
141.4050,60.5413
141.4592,60.4602
141.5403,60.4060
141.6360,60.3870
142.3360,60.3870
142.4317,60.4060
142.5128,60.4602
142.5670,60.5413
142.5860,60.6370
Z" /> 
</g>
<g style="fill:#000000; fill-opacity:1.0000; stroke:none;">
<circle cx="142.1130" cy="85.0900" r="1.0250" /> 
</g>
<g style="fill:#000000; fill-opacity:1.0000; stroke:none;">
<circle cx="139.5730" cy="82.5500" r="1.1250" /> 
</g>
<g style="fill:#000000; fill-opacity:1.0000; stroke:none;">
<circle cx="139.5730" cy="87.6300" r="1.1250" /> 
</g>
<g style="fill:#000000; fill-opacity:1.0000; stroke:none;">
<circle cx="144.6530" cy="82.5500" r="1.1250" /> 
</g>
<g style="fill:#000000; fill-opacity:1.0000; stroke:none;">
<circle cx="144.6530" cy="87.6300" r="1.1250" /> 
<path style="fill:#000000; fill-opacity:1.0000; stroke:none;fill-rule:evenodd;"
d="M 141.4180,78.9250
141.4370,78.8293
141.4912,78.7482
141.5723,78.6940
141.6680,78.6750
142.3680,78.6750
142.4637,78.6940
142.5448,78.7482
142.5990,78.8293
142.6180,78.9250
142.6180,79.8250
142.5990,79.9207
142.5448,80.0018
142.4637,80.0560
142.3680,80.0750
141.6680,80.0750
141.5723,80.0560
141.4912,80.0018
141.4370,79.9207
141.4180,79.8250
Z" /> 
<path style="fill:#000000; fill-opacity:1.0000; stroke:none;fill-rule:evenodd;"
d="M 143.4180,78.9250
143.4370,78.8293
143.4912,78.7482
143.5723,78.6940
143.6680,78.6750
144.3680,78.6750
144.4637,78.6940
144.5448,78.7482
144.5990,78.8293
144.6180,78.9250
144.6180,79.8250
144.5990,79.9207
144.5448,80.0018
144.4637,80.0560
144.3680,80.0750
143.6680,80.0750
143.5723,80.0560
143.4912,80.0018
143.4370,79.9207
143.4180,79.8250
Z" /> 
<path style="fill:#000000; fill-opacity:1.0000; stroke:none;fill-rule:evenodd;"
d="M 150.4280,61.5370
150.4090,61.6327
150.3548,61.7138
150.2737,61.7680
150.1780,61.7870
149.4780,61.7870
149.3823,61.7680
149.3012,61.7138
149.2470,61.6327
149.2280,61.5370
149.2280,60.6370
149.2470,60.5413
149.3012,60.4602
149.3823,60.4060
149.4780,60.3870
150.1780,60.3870
150.2737,60.4060
150.3548,60.4602
150.4090,60.5413
150.4280,60.6370
Z" /> 
<path style="fill:#000000; fill-opacity:1.0000; stroke:none;fill-rule:evenodd;"
d="M 148.4280,61.5370
148.4090,61.6327
148.3548,61.7138
148.2737,61.7680
148.1780,61.7870
147.4780,61.7870
147.3823,61.7680
147.3012,61.7138
147.2470,61.6327
147.2280,61.5370
147.2280,60.6370
147.2470,60.5413
147.3012,60.4602
147.3823,60.4060
147.4780,60.3870
148.1780,60.3870
148.2737,60.4060
148.3548,60.4602
148.4090,60.5413
148.4280,60.6370
Z" /> 
</g>
<g style="fill:#000000; fill-opacity:1.0000; stroke:none;">
<circle cx="141.4780" cy="115.8240" r="1.0250" /> 
</g>
<g style="fill:#000000; fill-opacity:1.0000; stroke:none;">
<circle cx="138.9380" cy="113.2840" r="1.1250" /> 
</g>
<g style="fill:#000000; fill-opacity:1.0000; stroke:none;">
<circle cx="138.9380" cy="118.3640" r="1.1250" /> 
</g>
<g style="fill:#000000; fill-opacity:1.0000; stroke:none;">
<circle cx="144.0180" cy="113.2840" r="1.1250" /> 
</g>
<g style="fill:#000000; fill-opacity:1.0000; stroke:none;">
<circle cx="144.0180" cy="118.3640" r="1.1250" /> 
<path style="fill:#000000; fill-opacity:1.0000; stroke:none;fill-rule:evenodd;"
d="M 150.8840,114.0380
150.8840,113.0380
151.8840,113.0380
151.8840,114.0380
Z" /> 
<path style="fill:#000000; fill-opacity:1.0000; stroke:none;fill-rule:evenodd;"
d="M 141.3700,100.6420
141.3890,100.5463
141.4432,100.4652
141.5243,100.4110
141.6200,100.3920
142.3200,100.3920
142.4157,100.4110
142.4968,100.4652
142.5510,100.5463
142.5700,100.6420
142.5700,101.5420
142.5510,101.6377
142.4968,101.7188
142.4157,101.7730
142.3200,101.7920
141.6200,101.7920
141.5243,101.7730
141.4432,101.7188
141.3890,101.6377
141.3700,101.5420
Z" /> 
<path style="fill:#000000; fill-opacity:1.0000; stroke:none;fill-rule:evenodd;"
d="M 143.3700,100.6420
143.3890,100.5463
143.4432,100.4652
143.5243,100.4110
143.6200,100.3920
144.3200,100.3920
144.4157,100.4110
144.4968,100.4652
144.5510,100.5463
144.5700,100.6420
144.5700,101.5420
144.5510,101.6377
144.4968,101.7188
144.4157,101.7730
144.3200,101.7920
143.6200,101.7920
143.5243,101.7730
143.4432,101.7188
143.3890,101.6377
143.3700,101.5420
Z" /> 
<path style="fill:#000000; fill-opacity:1.0000; stroke:none;fill-rule:evenodd;"
d="M 149.9200,93.5410
149.9010,93.6367
149.8468,93.7178
149.7657,93.7720
149.6700,93.7910
148.9700,93.7910
148.8743,93.7720
148.7932,93.7178
148.7390,93.6367
148.7200,93.5410
148.7200,92.6410
148.7390,92.5453
148.7932,92.4642
148.8743,92.4100
148.9700,92.3910
149.6700,92.3910
149.7657,92.4100
149.8468,92.4642
149.9010,92.5453
149.9200,92.6410
Z" /> 
<path style="fill:#000000; fill-opacity:1.0000; stroke:none;fill-rule:evenodd;"
d="M 147.9200,93.5410
147.9010,93.6367
147.8468,93.7178
147.7657,93.7720
147.6700,93.7910
146.9700,93.7910
146.8743,93.7720
146.7932,93.7178
146.7390,93.6367
146.7200,93.5410
146.7200,92.6410
146.7390,92.5453
146.7932,92.4642
146.8743,92.4100
146.9700,92.3910
147.6700,92.3910
147.7657,92.4100
147.8468,92.4642
147.9010,92.5453
147.9200,92.6410
Z" /> 
<path style="fill:#000000; fill-opacity:1.0000; stroke:none;fill-rule:evenodd;"
d="M 141.4180,72.0670
141.4370,71.9713
141.4912,71.8902
141.5723,71.8360
141.6680,71.8170
142.3680,71.8170
142.4637,71.8360
142.5448,71.8902
142.5990,71.9713
142.6180,72.0670
142.6180,72.9670
142.5990,73.0627
142.5448,73.1438
142.4637,73.1980
142.3680,73.2170
141.6680,73.2170
141.5723,73.1980
141.4912,73.1438
141.4370,73.0627
141.4180,72.9670
Z" /> 
<path style="fill:#000000; fill-opacity:1.0000; stroke:none;fill-rule:evenodd;"
d="M 143.4180,72.0670
143.4370,71.9713
143.4912,71.8902
143.5723,71.8360
143.6680,71.8170
144.3680,71.8170
144.4637,71.8360
144.5448,71.8902
144.5990,71.9713
144.6180,72.0670
144.6180,72.9670
144.5990,73.0627
144.5448,73.1438
144.4637,73.1980
144.3680,73.2170
143.6680,73.2170
143.5723,73.1980
143.4912,73.1438
143.4370,73.0627
143.4180,72.9670
Z" /> 
<path style="fill:#000000; fill-opacity:1.0000; stroke:none;fill-rule:evenodd;"
d="M 150.4280,69.9590
150.4090,70.0547
150.3548,70.1358
150.2737,70.1900
150.1780,70.2090
149.4780,70.2090
149.3823,70.1900
149.3012,70.1358
149.2470,70.0547
149.2280,69.9590
149.2280,69.0590
149.2470,68.9633
149.3012,68.8822
149.3823,68.8280
149.4780,68.8090
150.1780,68.8090
150.2737,68.8280
150.3548,68.8822
150.4090,68.9633
150.4280,69.0590
Z" /> 
<path style="fill:#000000; fill-opacity:1.0000; stroke:none;fill-rule:evenodd;"
d="M 148.4280,69.9590
148.4090,70.0547
148.3548,70.1358
148.2737,70.1900
148.1780,70.2090
147.4780,70.2090
147.3823,70.1900
147.3012,70.1358
147.2470,70.0547
147.2280,69.9590
147.2280,69.0590
147.2470,68.9633
147.3012,68.8822
147.3823,68.8280
147.4780,68.8090
148.1780,68.8090
148.2737,68.8280
148.3548,68.8822
148.4090,68.9633
148.4280,69.0590
Z" /> 
<path style="fill:#000000; fill-opacity:1.0000; stroke:none;fill-rule:evenodd;"
d="M 141.3700,96.5780
141.3890,96.4823
141.4432,96.4012
141.5243,96.3470
141.6200,96.3280
142.3200,96.3280
142.4157,96.3470
142.4968,96.4012
142.5510,96.4823
142.5700,96.5780
142.5700,97.4780
142.5510,97.5737
142.4968,97.6548
142.4157,97.7090
142.3200,97.7280
141.6200,97.7280
141.5243,97.7090
141.4432,97.6548
141.3890,97.5737
141.3700,97.4780
Z" /> 
<path style="fill:#000000; fill-opacity:1.0000; stroke:none;fill-rule:evenodd;"
d="M 143.3700,96.5780
143.3890,96.4823
143.4432,96.4012
143.5243,96.3470
143.6200,96.3280
144.3200,96.3280
144.4157,96.3470
144.4968,96.4012
144.5510,96.4823
144.5700,96.5780
144.5700,97.4780
144.5510,97.5737
144.4968,97.6548
144.4157,97.7090
144.3200,97.7280
143.6200,97.7280
143.5243,97.7090
143.4432,97.6548
143.3890,97.5737
143.3700,97.4780
Z" /> 
<path style="fill:#000000; fill-opacity:1.0000; stroke:none;fill-rule:evenodd;"
d="M 141.3700,102.6740
141.3890,102.5783
141.4432,102.4972
141.5243,102.4430
141.6200,102.4240
142.3200,102.4240
142.4157,102.4430
142.4968,102.4972
142.5510,102.5783
142.5700,102.6740
142.5700,103.5740
142.5510,103.6697
142.4968,103.7508
142.4157,103.8050
142.3200,103.8240
141.6200,103.8240
141.5243,103.8050
141.4432,103.7508
141.3890,103.6697
141.3700,103.5740
Z" /> 
<path style="fill:#000000; fill-opacity:1.0000; stroke:none;fill-rule:evenodd;"
d="M 143.3700,102.6740
143.3890,102.5783
143.4432,102.4972
143.5243,102.4430
143.6200,102.4240
144.3200,102.4240
144.4157,102.4430
144.4968,102.4972
144.5510,102.5783
144.5700,102.6740
144.5700,103.5740
144.5510,103.6697
144.4968,103.7508
144.4157,103.8050
144.3200,103.8240
143.6200,103.8240
143.5243,103.8050
143.4432,103.7508
143.3890,103.6697
143.3700,103.5740
Z" /> 
<path style="fill:#000000; fill-opacity:1.0000; stroke:none;fill-rule:evenodd;"
d="M 131.8650,72.6050
131.8650,70.9050
133.5650,70.9050
133.5650,72.6050
Z" /> 
</g>
<g style="fill:#000000; fill-opacity:1.0000; stroke:none;">
<circle cx="135.2550" cy="71.7550" r="0.8500" /> 
</g>
<g style="fill:#000000; fill-opacity:1.0000; stroke:none;">
<circle cx="132.7150" cy="74.2950" r="0.8500" /> 
</g>
<g style="fill:#000000; fill-opacity:1.0000; stroke:none;">
<circle cx="135.2550" cy="74.2950" r="0.8500" /> 
</g>
<g style="fill:#000000; fill-opacity:1.0000; stroke:none;">
<circle cx="132.7150" cy="76.8350" r="0.8500" /> 
</g>
<g style="fill:#000000; fill-opacity:1.0000; stroke:none;">
<circle cx="135.2550" cy="76.8350" r="0.8500" /> 
</g>
<g style="fill:#000000; fill-opacity:1.0000; stroke:none;">
<circle cx="132.7150" cy="79.3750" r="0.8500" /> 
</g>
<g style="fill:#000000; fill-opacity:1.0000; stroke:none;">
<circle cx="135.2550" cy="79.3750" r="0.8500" /> 
</g>
<g style="fill:#000000; fill-opacity:1.0000; stroke:none;">
<circle cx="132.7150" cy="81.9150" r="0.8500" /> 
</g>
<g style="fill:#000000; fill-opacity:1.0000; stroke:none;">
<circle cx="135.2550" cy="81.9150" r="0.8500" /> 
</g>
<g style="fill:#000000; fill-opacity:1.0000; stroke:none;">
<circle cx="132.7150" cy="84.4550" r="0.8500" /> 
</g>
<g style="fill:#000000; fill-opacity:1.0000; stroke:none;">
<circle cx="135.2550" cy="84.4550" r="0.8500" /> 
<path style="fill:#000000; fill-opacity:1.0000; stroke:none;fill-rule:evenodd;"
d="M 131.8650,95.4650
131.8650,93.7650
133.5650,93.7650
133.5650,95.4650
Z" /> 
</g>
<g style="fill:#000000; fill-opacity:1.0000; stroke:none;">
<circle cx="135.2550" cy="94.6150" r="0.8500" /> 
</g>
<g style="fill:#000000; fill-opacity:1.0000; stroke:none;">
<circle cx="132.7150" cy="97.1550" r="0.8500" /> 
</g>
<g style="fill:#000000; fill-opacity:1.0000; stroke:none;">
<circle cx="135.2550" cy="97.1550" r="0.8500" /> 
</g>
<g style="fill:#000000; fill-opacity:1.0000; stroke:none;">
<circle cx="132.7150" cy="99.6950" r="0.8500" /> 
</g>
<g style="fill:#000000; fill-opacity:1.0000; stroke:none;">
<circle cx="135.2550" cy="99.6950" r="0.8500" /> 
</g>
<g style="fill:#000000; fill-opacity:1.0000; stroke:none;">
<circle cx="132.7150" cy="102.2350" r="0.8500" /> 
</g>
<g style="fill:#000000; fill-opacity:1.0000; stroke:none;">
<circle cx="135.2550" cy="102.2350" r="0.8500" /> 
</g>
<g style="fill:#000000; fill-opacity:1.0000; stroke:none;">
<circle cx="132.7150" cy="104.7750" r="0.8500" /> 
</g>
<g style="fill:#000000; fill-opacity:1.0000; stroke:none;">
<circle cx="135.2550" cy="104.7750" r="0.8500" /> 
</g>
<g style="fill:#000000; fill-opacity:1.0000; stroke:none;">
<circle cx="132.7150" cy="107.3150" r="0.8500" /> 
</g>
<g style="fill:#000000; fill-opacity:1.0000; stroke:none;">
<circle cx="135.2550" cy="107.3150" r="0.8500" /> 
<path style="fill:#000000; fill-opacity:1.0000; stroke:none;fill-rule:evenodd;"
d="M 141.3700,104.7060
141.3890,104.6103
141.4432,104.5292
141.5243,104.4750
141.6200,104.4560
142.3200,104.4560
142.4157,104.4750
142.4968,104.5292
142.5510,104.6103
142.5700,104.7060
142.5700,105.6060
142.5510,105.7017
142.4968,105.7828
142.4157,105.8370
142.3200,105.8560
141.6200,105.8560
141.5243,105.8370
141.4432,105.7828
141.3890,105.7017
141.3700,105.6060
Z" /> 
<path style="fill:#000000; fill-opacity:1.0000; stroke:none;fill-rule:evenodd;"
d="M 143.3700,104.7060
143.3890,104.6103
143.4432,104.5292
143.5243,104.4750
143.6200,104.4560
144.3200,104.4560
144.4157,104.4750
144.4968,104.5292
144.5510,104.6103
144.5700,104.7060
144.5700,105.6060
144.5510,105.7017
144.4968,105.7828
144.4157,105.8370
144.3200,105.8560
143.6200,105.8560
143.5243,105.8370
143.4432,105.7828
143.3890,105.7017
143.3700,105.6060
Z" /> 
<path style="fill:#000000; fill-opacity:1.0000; stroke:none;fill-rule:evenodd;"
d="M 149.9520,106.2410
149.9330,106.3367
149.8788,106.4178
149.7977,106.4720
149.7020,106.4910
149.0020,106.4910
148.9063,106.4720
148.8252,106.4178
148.7710,106.3367
148.7520,106.2410
148.7520,105.3410
148.7710,105.2453
148.8252,105.1642
148.9063,105.1100
149.0020,105.0910
149.7020,105.0910
149.7977,105.1100
149.8788,105.1642
149.9330,105.2453
149.9520,105.3410
Z" /> 
<path style="fill:#000000; fill-opacity:1.0000; stroke:none;fill-rule:evenodd;"
d="M 147.9520,106.2410
147.9330,106.3367
147.8788,106.4178
147.7977,106.4720
147.7020,106.4910
147.0020,106.4910
146.9063,106.4720
146.8252,106.4178
146.7710,106.3367
146.7520,106.2410
146.7520,105.3410
146.7710,105.2453
146.8252,105.1642
146.9063,105.1100
147.0020,105.0910
147.7020,105.0910
147.7977,105.1100
147.8788,105.1642
147.9330,105.2453
147.9520,105.3410
Z" /> 
<path style="fill:#000000; fill-opacity:1.0000; stroke:none;fill-rule:evenodd;"
d="M 149.9520,103.7010
149.9330,103.7967
149.8788,103.8778
149.7977,103.9320
149.7020,103.9510
149.0020,103.9510
148.9063,103.9320
148.8252,103.8778
148.7710,103.7967
148.7520,103.7010
148.7520,102.8010
148.7710,102.7053
148.8252,102.6242
148.9063,102.5700
149.0020,102.5510
149.7020,102.5510
149.7977,102.5700
149.8788,102.6242
149.9330,102.7053
149.9520,102.8010
Z" /> 
<path style="fill:#000000; fill-opacity:1.0000; stroke:none;fill-rule:evenodd;"
d="M 147.9520,103.7010
147.9330,103.7967
147.8788,103.8778
147.7977,103.9320
147.7020,103.9510
147.0020,103.9510
146.9063,103.9320
146.8252,103.8778
146.7710,103.7967
146.7520,103.7010
146.7520,102.8010
146.7710,102.7053
146.8252,102.6242
146.9063,102.5700
147.0020,102.5510
147.7020,102.5510
147.7977,102.5700
147.8788,102.6242
147.9330,102.7053
147.9520,102.8010
Z" /> 
<path style="fill:#000000; fill-opacity:1.0000; stroke:none;fill-rule:evenodd;"
d="M 141.4180,76.6390
141.4370,76.5433
141.4912,76.4622
141.5723,76.4080
141.6680,76.3890
142.3680,76.3890
142.4637,76.4080
142.5448,76.4622
142.5990,76.5433
142.6180,76.6390
142.6180,77.5390
142.5990,77.6347
142.5448,77.7158
142.4637,77.7700
142.3680,77.7890
141.6680,77.7890
141.5723,77.7700
141.4912,77.7158
141.4370,77.6347
141.4180,77.5390
Z" /> 
<path style="fill:#000000; fill-opacity:1.0000; stroke:none;fill-rule:evenodd;"
d="M 143.4180,76.6390
143.4370,76.5433
143.4912,76.4622
143.5723,76.4080
143.6680,76.3890
144.3680,76.3890
144.4637,76.4080
144.5448,76.4622
144.5990,76.5433
144.6180,76.6390
144.6180,77.5390
144.5990,77.6347
144.5448,77.7158
144.4637,77.7700
144.3680,77.7890
143.6680,77.7890
143.5723,77.7700
143.4912,77.7158
143.4370,77.6347
143.4180,77.5390
Z" /> 
<path style="fill:#000000; fill-opacity:1.0000; stroke:none;fill-rule:evenodd;"
d="M 146.7520,110.4210
146.7710,110.3253
146.8252,110.2442
146.9063,110.1900
147.0020,110.1710
147.7020,110.1710
147.7977,110.1900
147.8788,110.2442
147.9330,110.3253
147.9520,110.4210
147.9520,111.3210
147.9330,111.4167
147.8788,111.4978
147.7977,111.5520
147.7020,111.5710
147.0020,111.5710
146.9063,111.5520
146.8252,111.4978
146.7710,111.4167
146.7520,111.3210
Z" /> 
<path style="fill:#000000; fill-opacity:1.0000; stroke:none;fill-rule:evenodd;"
d="M 148.7520,110.4210
148.7710,110.3253
148.8252,110.2442
148.9063,110.1900
149.0020,110.1710
149.7020,110.1710
149.7977,110.1900
149.8788,110.2442
149.9330,110.3253
149.9520,110.4210
149.9520,111.3210
149.9330,111.4167
149.8788,111.4978
149.7977,111.5520
149.7020,111.5710
149.0020,111.5710
148.9063,111.5520
148.8252,111.4978
148.7710,111.4167
148.7520,111.3210
Z" /> 
<path style="fill:#000000; fill-opacity:1.0000; stroke:none;fill-rule:evenodd;"
d="M 149.9520,96.0810
149.9330,96.1767
149.8788,96.2578
149.7977,96.3120
149.7020,96.3310
149.0020,96.3310
148.9063,96.3120
148.8252,96.2578
148.7710,96.1767
148.7520,96.0810
148.7520,95.1810
148.7710,95.0853
148.8252,95.0042
148.9063,94.9500
149.0020,94.9310
149.7020,94.9310
149.7977,94.9500
149.8788,95.0042
149.9330,95.0853
149.9520,95.1810
Z" /> 
<path style="fill:#000000; fill-opacity:1.0000; stroke:none;fill-rule:evenodd;"
d="M 147.9520,96.0810
147.9330,96.1767
147.8788,96.2578
147.7977,96.3120
147.7020,96.3310
147.0020,96.3310
146.9063,96.3120
146.8252,96.2578
146.7710,96.1767
146.7520,96.0810
146.7520,95.1810
146.7710,95.0853
146.8252,95.0042
146.9063,94.9500
147.0020,94.9310
147.7020,94.9310
147.7977,94.9500
147.8788,95.0042
147.9330,95.0853
147.9520,95.1810
Z" /> 
<path style="fill:#000000; fill-opacity:1.0000; stroke:none;fill-rule:evenodd;"
d="M 141.4180,67.4950
141.4370,67.3993
141.4912,67.3182
141.5723,67.2640
141.6680,67.2450
142.3680,67.2450
142.4637,67.2640
142.5448,67.3182
142.5990,67.3993
142.6180,67.4950
142.6180,68.3950
142.5990,68.4907
142.5448,68.5718
142.4637,68.6260
142.3680,68.6450
141.6680,68.6450
141.5723,68.6260
141.4912,68.5718
141.4370,68.4907
141.4180,68.3950
Z" /> 
<path style="fill:#000000; fill-opacity:1.0000; stroke:none;fill-rule:evenodd;"
d="M 143.4180,67.4950
143.4370,67.3993
143.4912,67.3182
143.5723,67.2640
143.6680,67.2450
144.3680,67.2450
144.4637,67.2640
144.5448,67.3182
144.5990,67.3993
144.6180,67.4950
144.6180,68.3950
144.5990,68.4907
144.5448,68.5718
144.4637,68.6260
144.3680,68.6450
143.6680,68.6450
143.5723,68.6260
143.4912,68.5718
143.4370,68.4907
143.4180,68.3950
Z" /> 
<path style="fill:#000000; fill-opacity:1.0000; stroke:none;fill-rule:evenodd;"
d="M 150.4280,78.8090
150.4090,78.9047
150.3548,78.9858
150.2737,79.0400
150.1780,79.0590
149.4780,79.0590
149.3823,79.0400
149.3012,78.9858
149.2470,78.9047
149.2280,78.8090
149.2280,77.9090
149.2470,77.8133
149.3012,77.7322
149.3823,77.6780
149.4780,77.6590
150.1780,77.6590
150.2737,77.6780
150.3548,77.7322
150.4090,77.8133
150.4280,77.9090
Z" /> 
<path style="fill:#000000; fill-opacity:1.0000; stroke:none;fill-rule:evenodd;"
d="M 148.4280,78.8090
148.4090,78.9047
148.3548,78.9858
148.2737,79.0400
148.1780,79.0590
147.4780,79.0590
147.3823,79.0400
147.3012,78.9858
147.2470,78.9047
147.2280,78.8090
147.2280,77.9090
147.2470,77.8133
147.3012,77.7322
147.3823,77.6780
147.4780,77.6590
148.1780,77.6590
148.2737,77.6780
148.3548,77.7322
148.4090,77.8133
148.4280,77.9090
Z" /> 
<path style="fill:#000000; fill-opacity:1.0000; stroke:none;fill-rule:evenodd;"
d="M 141.3700,106.7380
141.3890,106.6423
141.4432,106.5612
141.5243,106.5070
141.6200,106.4880
142.3200,106.4880
142.4157,106.5070
142.4968,106.5612
142.5510,106.6423
142.5700,106.7380
142.5700,107.6380
142.5510,107.7337
142.4968,107.8148
142.4157,107.8690
142.3200,107.8880
141.6200,107.8880
141.5243,107.8690
141.4432,107.8148
141.3890,107.7337
141.3700,107.6380
Z" /> 
<path style="fill:#000000; fill-opacity:1.0000; stroke:none;fill-rule:evenodd;"
d="M 143.3700,106.7380
143.3890,106.6423
143.4432,106.5612
143.5243,106.5070
143.6200,106.4880
144.3200,106.4880
144.4157,106.5070
144.4968,106.5612
144.5510,106.6423
144.5700,106.7380
144.5700,107.6380
144.5510,107.7337
144.4968,107.8148
144.4157,107.8690
144.3200,107.8880
143.6200,107.8880
143.5243,107.8690
143.4432,107.8148
143.3890,107.7337
143.3700,107.6380
Z" /> 
<path style="fill:#000000; fill-opacity:1.0000; stroke:none;fill-rule:evenodd;"
d="M 149.9520,108.7810
149.9330,108.8767
149.8788,108.9578
149.7977,109.0120
149.7020,109.0310
149.0020,109.0310
148.9063,109.0120
148.8252,108.9578
148.7710,108.8767
148.7520,108.7810
148.7520,107.8810
148.7710,107.7853
148.8252,107.7042
148.9063,107.6500
149.0020,107.6310
149.7020,107.6310
149.7977,107.6500
149.8788,107.7042
149.9330,107.7853
149.9520,107.8810
Z" /> 
<path style="fill:#000000; fill-opacity:1.0000; stroke:none;fill-rule:evenodd;"
d="M 147.9520,108.7810
147.9330,108.8767
147.8788,108.9578
147.7977,109.0120
147.7020,109.0310
147.0020,109.0310
146.9063,109.0120
146.8252,108.9578
146.7710,108.8767
146.7520,108.7810
146.7520,107.8810
146.7710,107.7853
146.8252,107.7042
146.9063,107.6500
147.0020,107.6310
147.7020,107.6310
147.7977,107.6500
147.8788,107.7042
147.9330,107.7853
147.9520,107.8810
Z" /> 
<path style="fill:#000000; fill-opacity:1.0000; stroke:none;fill-rule:evenodd;"
d="M 141.4180,74.3530
141.4370,74.2573
141.4912,74.1762
141.5723,74.1220
141.6680,74.1030
142.3680,74.1030
142.4637,74.1220
142.5448,74.1762
142.5990,74.2573
142.6180,74.3530
142.6180,75.2530
142.5990,75.3487
142.5448,75.4298
142.4637,75.4840
142.3680,75.5030
141.6680,75.5030
141.5723,75.4840
141.4912,75.4298
141.4370,75.3487
141.4180,75.2530
Z" /> 
<path style="fill:#000000; fill-opacity:1.0000; stroke:none;fill-rule:evenodd;"
d="M 143.4180,74.3530
143.4370,74.2573
143.4912,74.1762
143.5723,74.1220
143.6680,74.1030
144.3680,74.1030
144.4637,74.1220
144.5448,74.1762
144.5990,74.2573
144.6180,74.3530
144.6180,75.2530
144.5990,75.3487
144.5448,75.4298
144.4637,75.4840
144.3680,75.5030
143.6680,75.5030
143.5723,75.4840
143.4912,75.4298
143.4370,75.3487
143.4180,75.2530
Z" /> 
<path style="fill:#000000; fill-opacity:1.0000; stroke:none;fill-rule:evenodd;"
d="M 141.4180,62.9230
141.4370,62.8273
141.4912,62.7462
141.5723,62.6920
141.6680,62.6730
142.3680,62.6730
142.4637,62.6920
142.5448,62.7462
142.5990,62.8273
142.6180,62.9230
142.6180,63.8230
142.5990,63.9187
142.5448,63.9998
142.4637,64.0540
142.3680,64.0730
141.6680,64.0730
141.5723,64.0540
141.4912,63.9998
141.4370,63.9187
141.4180,63.8230
Z" /> 
<path style="fill:#000000; fill-opacity:1.0000; stroke:none;fill-rule:evenodd;"
d="M 143.4180,62.9230
143.4370,62.8273
143.4912,62.7462
143.5723,62.6920
143.6680,62.6730
144.3680,62.6730
144.4637,62.6920
144.5448,62.7462
144.5990,62.8273
144.6180,62.9230
144.6180,63.8230
144.5990,63.9187
144.5448,63.9998
144.4637,64.0540
144.3680,64.0730
143.6680,64.0730
143.5723,64.0540
143.4912,63.9998
143.4370,63.9187
143.4180,63.8230
Z" /> 
<path style="fill:#000000; fill-opacity:1.0000; stroke:none;fill-rule:evenodd;"
d="M 149.9200,98.6210
149.9010,98.7167
149.8468,98.7978
149.7657,98.8520
149.6700,98.8710
148.9700,98.8710
148.8743,98.8520
148.7932,98.7978
148.7390,98.7167
148.7200,98.6210
148.7200,97.7210
148.7390,97.6253
148.7932,97.5442
148.8743,97.4900
148.9700,97.4710
149.6700,97.4710
149.7657,97.4900
149.8468,97.5442
149.9010,97.6253
149.9200,97.7210
Z" /> 
<path style="fill:#000000; fill-opacity:1.0000; stroke:none;fill-rule:evenodd;"
d="M 147.9200,98.6210
147.9010,98.7167
147.8468,98.7978
147.7657,98.8520
147.6700,98.8710
146.9700,98.8710
146.8743,98.8520
146.7932,98.7978
146.7390,98.7167
146.7200,98.6210
146.7200,97.7210
146.7390,97.6253
146.7932,97.5442
146.8743,97.4900
146.9700,97.4710
147.6700,97.4710
147.7657,97.4900
147.8468,97.5442
147.9010,97.6253
147.9200,97.7210
Z" /> 
<path style="fill:#000000; fill-opacity:1.0000; stroke:none;fill-rule:evenodd;"
d="M 150.4280,75.8590
150.4090,75.9547
150.3548,76.0358
150.2737,76.0900
150.1780,76.1090
149.4780,76.1090
149.3823,76.0900
149.3012,76.0358
149.2470,75.9547
149.2280,75.8590
149.2280,74.9590
149.2470,74.8633
149.3012,74.7822
149.3823,74.7280
149.4780,74.7090
150.1780,74.7090
150.2737,74.7280
150.3548,74.7822
150.4090,74.8633
150.4280,74.9590
Z" /> 
<path style="fill:#000000; fill-opacity:1.0000; stroke:none;fill-rule:evenodd;"
d="M 148.4280,75.8590
148.4090,75.9547
148.3548,76.0358
148.2737,76.0900
148.1780,76.1090
147.4780,76.1090
147.3823,76.0900
147.3012,76.0358
147.2470,75.9547
147.2280,75.8590
147.2280,74.9590
147.2470,74.8633
147.3012,74.7822
147.3823,74.7280
147.4780,74.7090
148.1780,74.7090
148.2737,74.7280
148.3548,74.7822
148.4090,74.8633
148.4280,74.9590
Z" /> 
<path style="fill:#000000; fill-opacity:1.0000; stroke:none;fill-rule:evenodd;"
d="M 141.3860,92.6410
141.4050,92.5453
141.4592,92.4642
141.5403,92.4100
141.6360,92.3910
142.3360,92.3910
142.4317,92.4100
142.5128,92.4642
142.5670,92.5453
142.5860,92.6410
142.5860,93.5410
142.5670,93.6367
142.5128,93.7178
142.4317,93.7720
142.3360,93.7910
141.6360,93.7910
141.5403,93.7720
141.4592,93.7178
141.4050,93.6367
141.3860,93.5410
Z" /> 
<path style="fill:#000000; fill-opacity:1.0000; stroke:none;fill-rule:evenodd;"
d="M 143.3860,92.6410
143.4050,92.5453
143.4592,92.4642
143.5403,92.4100
143.6360,92.3910
144.3360,92.3910
144.4317,92.4100
144.5128,92.4642
144.5670,92.5453
144.5860,92.6410
144.5860,93.5410
144.5670,93.6367
144.5128,93.7178
144.4317,93.7720
144.3360,93.7910
143.6360,93.7910
143.5403,93.7720
143.4592,93.7178
143.4050,93.6367
143.3860,93.5410
Z" /> 
<path style="fill:#000000; fill-opacity:1.0000; stroke:none;fill-rule:evenodd;"
d="M 150.4280,67.0090
150.4090,67.1047
150.3548,67.1858
150.2737,67.2400
150.1780,67.2590
149.4780,67.2590
149.3823,67.2400
149.3012,67.1858
149.2470,67.1047
149.2280,67.0090
149.2280,66.1090
149.2470,66.0133
149.3012,65.9322
149.3823,65.8780
149.4780,65.8590
150.1780,65.8590
150.2737,65.8780
150.3548,65.9322
150.4090,66.0133
150.4280,66.1090
Z" /> 
<path style="fill:#000000; fill-opacity:1.0000; stroke:none;fill-rule:evenodd;"
d="M 148.4280,67.0090
148.4090,67.1047
148.3548,67.1858
148.2737,67.2400
148.1780,67.2590
147.4780,67.2590
147.3823,67.2400
147.3012,67.1858
147.2470,67.1047
147.2280,67.0090
147.2280,66.1090
147.2470,66.0133
147.3012,65.9322
147.3823,65.8780
147.4780,65.8590
148.1780,65.8590
148.2737,65.8780
148.3548,65.9322
148.4090,66.0133
148.4280,66.1090
Z" /> 
<path style="fill:#000000; fill-opacity:1.0000; stroke:none;fill-rule:evenodd;"
d="M 150.4280,64.0590
150.4090,64.1547
150.3548,64.2358
150.2737,64.2900
150.1780,64.3090
149.4780,64.3090
149.3823,64.2900
149.3012,64.2358
149.2470,64.1547
149.2280,64.0590
149.2280,63.1590
149.2470,63.0633
149.3012,62.9822
149.3823,62.9280
149.4780,62.9090
150.1780,62.9090
150.2737,62.9280
150.3548,62.9822
150.4090,63.0633
150.4280,63.1590
Z" /> 
<path style="fill:#000000; fill-opacity:1.0000; stroke:none;fill-rule:evenodd;"
d="M 148.4280,64.0590
148.4090,64.1547
148.3548,64.2358
148.2737,64.2900
148.1780,64.3090
147.4780,64.3090
147.3823,64.2900
147.3012,64.2358
147.2470,64.1547
147.2280,64.0590
147.2280,63.1590
147.2470,63.0633
147.3012,62.9822
147.3823,62.9280
147.4780,62.9090
148.1780,62.9090
148.2737,62.9280
148.3548,62.9822
148.4090,63.0633
148.4280,63.1590
Z" /> 
<path style="fill:#000000; fill-opacity:1.0000; stroke:none;fill-rule:evenodd;"
d="M 147.2280,80.0680
147.2470,79.9723
147.3012,79.8912
147.3823,79.8370
147.4780,79.8180
148.1780,79.8180
148.2737,79.8370
148.3548,79.8912
148.4090,79.9723
148.4280,80.0680
148.4280,80.9680
148.4090,81.0637
148.3548,81.1448
148.2737,81.1990
148.1780,81.2180
147.4780,81.2180
147.3823,81.1990
147.3012,81.1448
147.2470,81.0637
147.2280,80.9680
Z" /> 
<path style="fill:#000000; fill-opacity:1.0000; stroke:none;fill-rule:evenodd;"
d="M 149.2280,80.0680
149.2470,79.9723
149.3012,79.8912
149.3823,79.8370
149.4780,79.8180
150.1780,79.8180
150.2737,79.8370
150.3548,79.8912
150.4090,79.9723
150.4280,80.0680
150.4280,80.9680
150.4090,81.0637
150.3548,81.1448
150.2737,81.1990
150.1780,81.2180
149.4780,81.2180
149.3823,81.1990
149.3012,81.1448
149.2470,81.0637
149.2280,80.9680
Z" /> 
</g> 
</svg>
